<svg width="154" height="49" viewBox="0 0 154 49" fill="none" xmlns="http://www.w3.org/2000/svg">
<path d="M22.1629 11.4283C19.1035 12.1206 16.1183 13.0359 13.2403 14.1642C10.2692 15.3025 7.50004 16.7934 5.01557 18.5923C4.38544 19.0673 3.78493 19.57 3.21648 20.0985L2.99957 20.2957L2.77705 20.5323L2.33729 21.0101C2.05391 21.3345 1.82281 21.6934 1.57384 22.0378C0.695061 23.4682 0.271197 25.0681 0.344708 26.6773C0.418203 28.2865 0.986496 29.8484 1.99267 31.2067L2.17434 31.4602L2.3828 31.6988L2.80466 32.1725C3.10782 32.4717 3.42927 32.7607 3.76185 33.0353L4.29299 33.4194C4.4659 33.5508 4.65035 33.6708 4.84475 33.7783C5.20394 33.9939 5.57586 34.1936 5.9591 34.3769C11.7522 37.202 18.0512 39.0804 24.3411 40.5252C28.5426 41.499 32.7829 42.2646 37.0125 42.9634C39.1277 43.3141 41.2436 43.6337 43.3592 43.9705C45.4765 44.2967 47.601 44.5955 49.7216 44.9094C58.2172 46.1105 66.7715 47.0825 75.3754 47.7253C83.9903 48.3882 92.6439 48.6514 101.298 48.5136C109.977 48.3752 118.638 47.7074 127.212 46.5152C127.876 46.439 128.53 46.316 129.189 46.214L131.162 45.8908C132.477 45.6702 133.79 45.4699 135.106 45.2073C137.801 44.7189 140.444 44.0362 143.007 43.1664C144.321 42.7046 145.591 42.1571 146.807 41.5287C147.113 41.3686 147.419 41.2088 147.715 41.032C148.026 40.8622 148.325 40.6767 148.61 40.4765L149.505 39.8488C149.782 39.6197 150.045 39.3758 150.313 39.1379C150.582 38.9002 150.828 38.6445 151.049 38.3733C151.292 38.1156 151.511 37.8433 151.707 37.5586C151.9 37.2726 152.097 36.9882 152.281 36.6986L152.739 35.7919C153.285 34.5644 153.582 33.268 153.619 31.958C153.622 30.6521 153.37 29.3562 152.873 28.1233C152.362 26.8921 151.597 25.7499 150.613 24.7507L149.846 24.0264C149.567 23.8069 149.277 23.5964 148.99 23.3831C148.849 23.2824 148.696 23.1594 148.564 23.0782L148.16 22.8226L147.352 22.3115C146.812 21.9725 146.278 21.6263 145.733 21.2936L144.078 20.3198C141.873 19.0188 139.588 17.8248 137.28 16.6659C136.112 16.1093 134.947 15.5464 133.766 15.0102L131.983 14.2254L131.091 13.8331L130.187 13.4626C125.376 11.476 120.426 9.74294 115.363 8.27309C110.309 6.81301 105.164 5.58621 99.9514 4.59801C89.5385 2.61903 78.9426 1.49269 68.3398 0.89461C61.94 0.525645 55.4668 0.4544 49.1479 0.487227C43.0947 0.526589 39.1827 0.867209 36.762 1.28402C34.9995 1.58758 35.0104 1.88691 36.5285 2.12328C38.0466 2.35965 41.0725 2.52644 45.3416 2.62183C50.7443 2.73981 56.6415 2.84574 62.2128 3.04013C75.0323 3.48947 87.8154 4.65145 100.229 7.15928C112.618 9.66769 124.656 13.5171 135.532 19.0361C138.522 20.5704 141.474 22.2631 144.309 24.0499C145.011 24.504 145.711 24.957 146.41 25.409C146.729 25.6309 146.981 25.8404 147.274 26.0514C147.545 26.272 147.773 26.5252 148.03 26.7553C148.964 27.7331 149.614 28.8854 149.929 30.1197C150.165 31.0973 150.195 32.104 150.017 33.0926L149.94 33.4614C149.922 33.5853 149.89 33.7076 149.846 33.8267L149.596 34.545L149.251 35.2329L149.165 35.4053L149.055 35.5666L148.835 35.8902C148.761 35.9977 148.693 36.1084 148.616 36.2142L148.351 36.5122C148.187 36.7187 148.003 36.9139 147.803 37.0958L147.195 37.6383L146.509 38.1131C146.27 38.2821 146.017 38.4373 145.754 38.5778C145.493 38.7342 145.215 38.8716 144.943 39.0153C144.393 39.2983 143.821 39.5542 143.242 39.8008C140.833 40.7501 138.312 41.4741 135.723 41.96C133.094 42.5038 130.36 42.8559 127.676 43.3038C126.327 43.505 124.966 43.6544 123.612 43.8321L121.578 44.0888C120.898 44.1657 120.216 44.2222 119.535 44.2901L115.448 44.6792L111.347 44.9558C110.664 44.9978 109.982 45.0587 109.297 45.0855L107.243 45.1709C105.873 45.2207 104.505 45.3026 103.135 45.3288C100.394 45.3748 97.6541 45.4524 94.9129 45.418C78.6078 45.3821 62.2647 43.6532 46.1272 41.3122C38.9309 40.2387 31.722 39.1797 24.7556 37.5768C21.2831 36.7881 17.8744 35.8113 14.5501 34.6524C13.7339 34.3454 12.9038 34.0606 12.1055 33.7249C11.7038 33.5612 11.2982 33.4032 10.8996 33.2347L9.71553 32.7117C9.31721 32.5422 8.93077 32.3563 8.5464 32.1674C8.16549 31.9809 7.76369 31.7933 7.39955 31.6081C7.08044 31.4385 6.77633 31.2494 6.48961 31.0422C6.34245 30.9429 6.20221 30.8364 6.06963 30.7233L5.68506 30.373C4.69844 29.3893 4.0988 28.1656 3.96997 26.8729C3.9015 26.2318 3.95781 25.5848 4.13663 24.9581C4.15773 24.8801 4.17235 24.8002 4.19781 24.7231L4.29004 24.4959C4.35611 24.3461 4.39769 24.1878 4.47946 24.0436L4.71971 23.6084C4.80351 23.4647 4.89822 23.3258 5.00326 23.1926C5.20156 22.9179 5.42391 22.6564 5.66837 22.4101C5.94313 22.1514 6.24058 21.883 6.53595 21.6262C7.1521 21.1153 7.80204 20.6349 8.48253 20.1873C9.87796 19.2811 11.3622 18.4793 12.9185 17.7907C16.1044 16.4024 19.4488 15.2991 22.8979 14.4985C26.4162 13.6609 29.9556 12.8903 33.516 12.1868C39.198 11.0726 44.7394 10.0644 50.0797 9.18914C52.7489 8.7461 55.3678 8.33889 57.926 7.95397C60.4822 7.55381 62.9819 7.20594 65.4103 6.86909C67.6452 6.5717 68.6814 6.30005 68.4994 6.11101C68.3185 5.93036 66.9154 5.80795 64.2816 5.9016C56.5856 6.17232 48.913 6.83785 41.3053 7.89457C38.1332 8.31691 34.9444 8.87732 31.757 9.48324C28.5703 10.0937 25.3868 10.7628 22.2357 11.4711C22.2127 11.4561 22.1906 11.4426 22.1629 11.4283Z" fill="black"/>
</svg>
